<?xml version="1.0" encoding="utf-8"?>
<!-- Generator: Adobe Illustrator 16.0.0, SVG Export Plug-In . SVG Version: 6.00 Build 0)  -->
<!DOCTYPE svg PUBLIC "-//W3C//DTD SVG 1.1//EN" "http://www.w3.org/Graphics/SVG/1.1/DTD/svg11.dtd">
<svg version="1.1" id="Layer_1" xmlns="http://www.w3.org/2000/svg" xmlns:xlink="http://www.w3.org/1999/xlink" x="0px" y="0px"
	 width="1024px" height="1024px" viewBox="-262 -262 1024 1024" enable-background="new -262 -262 1024 1024" xml:space="preserve">
<g>
	<g>
		<path fill="#2196F3" d="M-238.392-107.982v521.525c0,82.576,63.507,148.872,143.473,148.872H48.068v198.187l294.488-198.187
			h248.457c79.967,0,147.377-66.296,147.377-148.876v-521.521c0-82.58-67.41-151.416-147.377-151.416H-94.919
			C-174.885-259.398-238.392-190.563-238.392-107.982z M-153.859,413.543v-521.525c0-34.005,26.018-62.19,58.944-62.19h685.929
			c32.927,0,58.152,28.185,58.152,62.19v521.525c0,34.004-25.226,64.345-58.152,64.345h-273.67L132.596,598.584V477.888H-94.919
			c-32.927,0-58.944-30.337-58.944-64.345H-153.859z"/>
		<path fill="#2196F3" d="M460.336-27.66c-6.539-7.008-17.346-7.214-24.127-0.462l-229.79,228.653
			c-6.383,6.35-16.407,6.597-23.077,0.574L73.636,101.984c-7.088-6.411-17.874-5.667-24.073,1.657l-33.708,39.78
			c-6.208,7.322-5.491,18.456,1.602,24.861L186.13,320.675c6.667,6.028,16.69,5.774,23.074-0.577L495.408,35.317
			c6.783-6.753,6.985-17.906,0.446-24.912L460.336-27.66z"/>
	</g>
</g>
</svg>
